<?xml version="1.0" encoding="UTF-8"?>
<svg width="200" height="60" viewBox="0 0 200 60" fill="none" xmlns="http://www.w3.org/2000/svg">
  <!-- Background shape -->
  <rect width="200" height="60" rx="8" fill="#F7FAFC"/>
  
  <!-- iLead text -->
  <path d="M20 38 L20 20 M20 38 L40 38 M40 38 L40 20 M50 38 L50 20 M50 38 L70 38 M70 38 L70 20 M80 38 L80 20 M80 38 L100 38 M100 38 L100 20 M110 38 L110 20 M110 38 L130 38 M130 38 L130 20" 
        stroke="#4A5568" 
        stroke-width="2" 
        stroke-linecap="round"/>
  
  <!-- Initiative text -->
  <path d="M140 38 L140 20 M140 38 L160 38 M160 38 L160 20 M170 38 L170 20 M170 38 L190 38 M190 38 L190 20" 
        stroke="#718096" 
        stroke-width="2" 
        stroke-linecap="round"/>
  
  <!-- Decorative line -->
  <line x1="20" y1="42" x2="180" y2="42" stroke="#E2E8F0" stroke-width="2"/>
  
  <!-- Dot above 'i' -->
  <circle cx="20" cy="20" r="3" fill="#4A5568"/>
</svg> 